<?xml version="1.0" standalone="no"?>
<!DOCTYPE svg PUBLIC "-//W3C//DTD SVG 20010904//EN"
 "http://www.w3.org/TR/2001/REC-SVG-20010904/DTD/svg10.dtd">
<svg version="1.0" xmlns="http://www.w3.org/2000/svg"
 width="294.000000pt" height="294.000000pt" viewBox="0 0 294.000000 294.000000"
 preserveAspectRatio="xMidYMid meet">
<metadata>
Created by potrace 1.14, written by Peter Selinger 2001-2017
</metadata>
<g transform="translate(0.000000,294.000000) scale(0.100000,-0.100000)"
fill="#000000" stroke="none">
<path d="M0 1465 l0 -1465 1470 0 1470 0 0 1465 0 1465 -1470 0 -1470 0 0
-1465z m2700 5 l0 -600 -45 0 -45 0 0 600 0 600 45 0 45 0 0 -600z m-2030 255
c0 -20 5 -25 25 -25 18 0 25 -5 25 -20 0 -13 7 -20 20 -20 17 0 20 -7 20 -50
0 -47 2 -50 25 -50 24 0 25 -2 25 -70 0 -68 -1 -70 -25 -70 -24 0 -25 -2 -25
-65 0 -58 -2 -65 -20 -65 -15 0 -20 -7 -20 -25 0 -23 -4 -25 -45 -25 -41 0
-45 -2 -45 -25 l0 -25 -120 0 -120 0 0 25 c0 18 -5 25 -20 25 -15 0 -20 7 -20
25 0 20 -5 25 -25 25 -18 0 -25 5 -25 20 0 13 -7 20 -20 20 -19 0 -20 7 -20
140 0 133 1 140 20 140 17 0 20 7 20 45 l0 45 45 0 c41 0 45 2 45 25 l0 25
140 0 140 0 0 -25z m780 0 c0 -20 5 -25 25 -25 18 0 25 -5 25 -20 0 -15 7 -20
25 -20 24 0 25 -2 25 -70 0 -63 2 -70 20 -70 17 0 20 -7 20 -50 0 -43 -3 -50
-20 -50 -17 0 -20 -7 -20 -45 0 -41 -2 -45 -25 -45 -23 0 -25 -4 -25 -45 l0
-45 -45 0 c-41 0 -45 -2 -45 -25 l0 -25 -115 0 -115 0 0 25 c0 20 -5 25 -25
25 -20 0 -25 5 -25 25 0 18 -5 25 -20 25 -13 0 -20 7 -20 20 0 15 -7 20 -25
20 l-25 0 0 140 0 140 25 0 c23 0 25 4 25 45 l0 45 45 0 c41 0 45 2 45 25 l0
25 135 0 135 0 0 -25z m790 0 c0 -18 5 -25 20 -25 13 0 20 -7 20 -20 0 -15 7
-20 25 -20 24 0 25 -2 25 -70 0 -68 1 -70 25 -70 20 0 25 -5 25 -25 0 -20 -5
-25 -25 -25 -24 0 -25 -2 -25 -70 0 -68 -1 -70 -25 -70 -23 0 -25 -4 -25 -45
l0 -45 -45 0 c-41 0 -45 -2 -45 -25 l0 -25 -115 0 -115 0 0 25 c0 18 -5 25
-20 25 -15 0 -20 7 -20 25 0 20 -5 25 -25 25 -18 0 -25 5 -25 20 0 15 -7 20
-25 20 l-25 0 0 140 0 140 25 0 c23 0 25 4 25 45 l0 45 45 0 c41 0 45 2 45 25
l0 25 140 0 140 0 0 -25z"/>
</g>
</svg>
